<svg xmlns="http://www.w3.org/2000/svg" viewBox="0 0 474.26 72.52"><defs><style>.cls-1{fill:#34a9e4;}.cls-2{fill:#005476;}.cls-3{fill:#5e5f5f;}</style></defs><title>Recurso 1</title><g id="Capa_2" data-name="Capa 2"><g id="Capa_1-2" data-name="Capa 1"><path class="cls-1" d="M103.52,17.78c-1,.27-2,.58-2.92.91s-1.66.64-2.47,1l-1,.5a21.41,21.41,0,0,0-2.62,1.61c-.74.51-1.46,1.06-2.17,1.66A17.07,17.07,0,0,0,91,24.68a25.75,25.75,0,0,0-8,17.08c-.07.87-.1,1.74-.1,2.61s0,1.8.1,2.67a25.52,25.52,0,0,0,7.85,17,26.77,26.77,0,0,0,3.63,3l.8.51c.61.37,1.21.72,1.82,1.06.33.16.67.31,1,.45a30.28,30.28,0,0,0,5.39,1.86,35.33,35.33,0,0,0,7.71.81,27.11,27.11,0,0,0,9.67-1.76,2.53,2.53,0,0,0,.85-.31,6.48,6.48,0,0,0,4-5.13l.1-1.21a6.76,6.76,0,0,0-2.11-5.09,7.24,7.24,0,0,0-5.19-2,8.65,8.65,0,0,0-2.57.4l.1,0a13.32,13.32,0,0,1-3.73.55A12.68,12.68,0,0,1,103.52,54l-.45-.45a12.7,12.7,0,0,1-3.53-9.32,12.43,12.43,0,0,1,3.18-8.81,9.48,9.48,0,0,1,2.77-2.17,13,13,0,0,1,6.84-1.76,13.34,13.34,0,0,1,3.73.56L116,32a9,9,0,0,0,2.57.4,7.25,7.25,0,0,0,5.19-2,6.74,6.74,0,0,0,2.11-5.08l-.1-1.21a6.49,6.49,0,0,0-4-5.14,2.72,2.72,0,0,0-.85-.3A27.11,27.11,0,0,0,111.23,17a36,36,0,0,0-7.71.8"/><path class="cls-1" d="M234.86,9.05a7.58,7.58,0,0,0-.94,1.14,7.83,7.83,0,0,0-1.4,4.23V50.73a37.26,37.26,0,0,0,.45,6q1,6.55,4.63,10.19,3.78,3.78,10.64,4.58c1.13.1,2.31.15,3.53.15l.75,0,.3,0,.94,0c.3,0,.58-.09.85-.15s.66-.15,1-.25A7.83,7.83,0,0,0,258,69.78a7,7,0,0,0,2.44-5.42,6.93,6.93,0,0,0-2.14-5.23,1.58,1.58,0,0,0-.3-.24,7.13,7.13,0,0,0-3.43-1.7,9,9,0,0,0-1-.14,2.47,2.47,0,0,1,.5.05,8.76,8.76,0,0,1-2.09-1c-.23-.13-.45-.27-.65-.4a5.08,5.08,0,0,1-2.48-4.22v-13h9.55a3.14,3.14,0,0,0,2.23-.84,7.18,7.18,0,0,0,2.49-5.57A7.24,7.24,0,0,0,261,26.71a1.66,1.66,0,0,0-.3-.25,4.44,4.44,0,0,0-2.23-1.15h-9.55V14.42a7.82,7.82,0,0,0-1.39-4.23,11.82,11.82,0,0,0-1-1.14,8.27,8.27,0,0,0-5.87-2.24,8.1,8.1,0,0,0-5.82,2.24"/><path class="cls-1" d="M43.84,41.05a8.74,8.74,0,0,1,.25-2.12.41.41,0,0,1,.06-.2,6.37,6.37,0,0,1,1.56-3A6.77,6.77,0,0,1,51,33.6a6.56,6.56,0,0,1,4.94,1.91,6.79,6.79,0,0,1,1.71,3.22.46.46,0,0,0,0,.2,10,10,0,0,1,.2,2.12V63.66a7.83,7.83,0,0,0,1.82,5.19c.16.17.35.35.55.55l.25.25A8.83,8.83,0,0,0,72,69.4a7.49,7.49,0,0,0,2.42-5.74V50.72c0-.51,0-1,0-1.46q0-6.21,0-6.3c0-.77,0-1.54,0-2.31A22.65,22.65,0,0,0,67.56,24,22.55,22.55,0,0,0,51,17.18,22.72,22.72,0,0,0,34.37,24q-6.84,6.9-7,20.85,0,2.38-.06,4.38c0,.94,0,1.81,0,2.62h0l0,11.78a7.59,7.59,0,0,0,2.36,5.74,8.09,8.09,0,0,0,5.89,2.27h.21a8.59,8.59,0,0,0,4.43-1.26,13,13,0,0,0,1.26-1,7.52,7.52,0,0,0,2.41-5.74V41.05"/><path class="cls-1" d="M15.05,14.67a8.18,8.18,0,0,0,2.53-6.12,8.05,8.05,0,0,0-2.53-6.11A8.72,8.72,0,0,0,8.74,0,8.57,8.57,0,0,0,2.48,2.44,8.12,8.12,0,0,0,0,8.55a8.25,8.25,0,0,0,2.48,6.12,8.69,8.69,0,0,0,6.26,2.38,8.84,8.84,0,0,0,6.31-2.38"/><path class="cls-1" d="M8.76,19.63a8.22,8.22,0,0,0-5.88,2.26A7.82,7.82,0,0,0,.52,27.72v22.7A34.16,34.16,0,0,0,8.16,46a27.07,27.07,0,0,0,6.93-8.49l2-4.57V27.72a7.72,7.72,0,0,0-2.41-5.83,8.37,8.37,0,0,0-5.93-2.26"/><path class="cls-2" d="M11.27,47l-.1.2-.55.6a.65.65,0,0,0-.15.2l-.85,1a36.85,36.85,0,0,1-5.73,4.62A26.24,26.24,0,0,1,.53,55.54v8.14a7.52,7.52,0,0,0,2.2,5.53,7.89,7.89,0,0,0,6,2.46,8.37,8.37,0,0,0,5.93-2.26,7.51,7.51,0,0,0,2.41-5.73V36.81L15.89,40c-.16.37-.35.76-.55,1.16l-2,3.27a24.73,24.73,0,0,1-1.56,2,3.11,3.11,0,0,0-.2.25,2.86,2.86,0,0,1-.3.36"/><path class="cls-1" d="M179.28,38.19q0-9.9-4.5-15-5.4-6-17.91-6.05-10.86,0-18.41,5.45l-.15.1a5.84,5.84,0,0,0-2.55,3.2.88.88,0,0,0-.1.4l-.1.3a9.85,9.85,0,0,0-.1,1.46.45.45,0,0,0,0,.19,6,6,0,0,0,.85,2.76,7.06,7.06,0,0,0,2,2.2.23.23,0,0,0,.15,0,3.77,3.77,0,0,0,1.6.75.69.69,0,0,0,.4.15,6.27,6.27,0,0,0,4.05-.6.56.56,0,0,1,.15-.1l.26-.1v0q3.5-2.05,9.9-2a9.62,9.62,0,0,1,5.95,1.6,4.79,4.79,0,0,1,2,4v1.9a24.8,24.8,0,0,0-10-1.9q-9.15,0-14.66,4.7a15.57,15.57,0,0,0-5.45,12.46,15.9,15.9,0,0,0,5.8,12.91,20.31,20.31,0,0,0,13.41,4.45q7.31,0,11.41-3.8v-.15a7.39,7.39,0,0,0,1.8,2.65,8.13,8.13,0,0,0,2.1,1.45,8.53,8.53,0,0,0,3.75.8,8.85,8.85,0,0,0,3.8-.8,8.13,8.13,0,0,0,2.1-1.45,7.43,7.43,0,0,0,2.4-5.46V63h-.1a11.11,11.11,0,0,0,.1-1.55ZM161.12,57.55a8.33,8.33,0,0,1-5,1.35,8.5,8.5,0,0,1-4.95-1.35,4.63,4.63,0,0,1-2.05-4,4.79,4.79,0,0,1,2-4,7.88,7.88,0,0,1,4.95-1.5,8.31,8.31,0,0,1,5,1.4,4.82,4.82,0,0,1,2,4.1,4.71,4.71,0,0,1-1.95,4"/><path class="cls-1" d="M189.6,24.27V65.38A7.13,7.13,0,0,0,191.41,70a1.79,1.79,0,0,0,.37.41l.24.24a7.29,7.29,0,0,0,1.53,1,.49.49,0,0,0,.18.09,7.94,7.94,0,0,0,3.48.74,8.26,8.26,0,0,0,3.53-.74l.18-.09a7.39,7.39,0,0,0,1.77-1.26,2.65,2.65,0,0,0,.41-.41,7,7,0,0,0,1.81-4.64V51.27q0-12.62,9.88-12.62a17.89,17.89,0,0,1,2.46.19h1.21a5.74,5.74,0,0,0,2.5-1.3,8.24,8.24,0,0,0,2.83-6.4c0-2.51-.44-4.19-1.34-5.06a10.55,10.55,0,0,0-2.23-1.71,9.94,9.94,0,0,0-2.18-.84,9.3,9.3,0,0,0-3.57-.09,12.7,12.7,0,0,0-5,1.9,10.87,10.87,0,0,0-4.6,5.52V24.27a7,7,0,0,0-1.81-4.64,1.42,1.42,0,0,0-.37-.41L202.5,19A7.29,7.29,0,0,0,201,18a.47.47,0,0,0-.19-.09,7.94,7.94,0,0,0-3.48-.74,8.25,8.25,0,0,0-3.52.74l-.19.09a7.54,7.54,0,0,0-1.76,1.26,3.25,3.25,0,0,0-.42.41,7.13,7.13,0,0,0-1.81,4.64"/><path class="cls-3" d="M276.94,72.15a.37.37,0,0,1-.38-.37V2.84a.38.38,0,1,1,.75,0V71.78a.37.37,0,0,1-.37.37"/><rect class="cls-3" x="294.57" y="16.88" width="2.84" height="10"/><polygon class="cls-3" points="299.07 16.88 301.97 16.88 305.18 22.55 305.18 16.88 307.98 16.88 307.98 26.88 305.15 26.88 301.85 21.29 301.85 26.88 299.07 26.88 299.07 16.88"/><path class="cls-3" d="M311.35,23.46a1.8,1.8,0,0,0,1.37,1c.45,0,.63-.19.63-.45,0-1-4.07-1-4.07-4.22,0-1.9,1.39-3.09,3.46-3.09a3.43,3.43,0,0,1,3.41,2.43l-2.36,1.06c-.2-.42-.44-.92-1.12-.92-.35,0-.55.19-.55.46,0,1.11,4.1,1.06,4.1,4.07,0,1.91-1.27,3.27-3.58,3.27A3.85,3.85,0,0,1,309,24.63Z"/><polygon class="cls-3" points="318.91 19.36 316.87 19.36 316.87 16.88 323.82 16.88 323.82 19.36 321.75 19.36 321.75 26.87 318.91 26.87 318.91 19.36"/><rect class="cls-3" x="324.88" y="16.88" width="2.84" height="10"/><polygon class="cls-3" points="330.85 19.36 328.81 19.36 328.81 16.88 335.76 16.88 335.76 19.36 333.69 19.36 333.69 26.87 330.85 26.87 330.85 19.36"/><path class="cls-3" d="M336.82,23V16.88h2.84V23a1.52,1.52,0,0,0,3,0v-6.1h2.84V23c0,2.41-1.54,4.1-4.36,4.1s-4.35-1.69-4.35-4.1"/><polygon class="cls-3" points="348.66 19.36 346.62 19.36 346.62 16.88 353.57 16.88 353.57 19.36 351.5 19.36 351.5 26.87 348.66 26.87 348.66 19.36"/><path class="cls-3" d="M354,21.86a5.4,5.4,0,0,1,10.79,0,5.4,5.4,0,0,1-10.79,0m3,0a2.43,2.43,0,1,0,4.85,0,2.43,2.43,0,1,0-4.85,0"/><polygon class="cls-3" points="368.8 16.88 371.69 16.88 374.91 22.55 374.91 16.88 377.71 16.88 377.71 26.88 374.88 26.88 371.58 21.29 371.58 26.88 368.8 26.88 368.8 16.88"/><path class="cls-3" d="M382.05,25l-.6,1.91h-2.86l3.46-10h3l3.46,10h-2.86l-.6-1.91Zm1.5-5.14-.83,2.87h1.66Z"/><path class="cls-3" d="M393.68,16.69a5.45,5.45,0,0,1,3,.86L395.92,20a3.27,3.27,0,0,0-2.1-.74,2.46,2.46,0,0,0-2.53,2.57,2.47,2.47,0,0,0,2.53,2.6,3.27,3.27,0,0,0,2.1-.74l.78,2.48a5.45,5.45,0,0,1-3,.86,5.19,5.19,0,1,1,0-10.37"/><rect class="cls-3" x="397.89" y="16.88" width="2.84" height="10"/><path class="cls-3" d="M401.89,21.86a5.41,5.41,0,0,1,10.8,0,5.4,5.4,0,0,1-10.8,0m3,0a2.44,2.44,0,1,0,4.86,0,2.43,2.43,0,1,0-4.86,0"/><polygon class="cls-3" points="413.84 16.88 416.74 16.88 419.96 22.55 419.96 16.88 422.75 16.88 422.75 26.88 419.93 26.88 416.63 21.29 416.63 26.88 413.84 26.88 413.84 16.88"/><path class="cls-3" d="M427.1,25l-.6,1.91h-2.86l3.46-10h3l3.45,10H430.7L430.1,25Zm1.5-5.14-.83,2.87h1.66Z"/><polygon class="cls-3" points="434.44 16.88 437.28 16.88 437.28 24.39 440.15 24.39 440.15 26.88 434.44 26.88 434.44 16.88"/><path class="cls-3" d="M294.57,34h3.26c3.21,0,5.34,1.88,5.34,5s-2.1,5-5.34,5h-3.26Zm3.2,7.6a2.3,2.3,0,0,0,2.44-2.6,2.29,2.29,0,0,0-2.44-2.59h-.36v5.19Z"/><polygon class="cls-3" points="304.34 34.02 309.94 34.02 309.94 36.5 307.18 36.5 307.18 37.73 309.51 37.73 309.51 40.2 307.18 40.2 307.18 41.53 310.05 41.53 310.05 44.01 304.34 44.01 304.34 34.02"/><polygon class="cls-3" points="311.45 34.02 314.3 34.02 314.3 41.53 317.17 41.53 317.17 44.01 311.45 44.01 311.45 34.02"/><path class="cls-3" d="M325.86,33.83a5.51,5.51,0,0,1,3,.86l-.79,2.48a3.24,3.24,0,0,0-2.09-.74,2.59,2.59,0,0,0,0,5.17,3.24,3.24,0,0,0,2.09-.74l.79,2.48a5.51,5.51,0,0,1-3,.86,5.19,5.19,0,1,1,0-10.37"/><path class="cls-3" d="M332.76,42.1l-.6,1.91h-2.85l3.45-10h3l3.46,10h-2.86l-.6-1.91Zm1-10.63h2.86l-1.57,2.16h-2.21Zm.46,5.49-.83,2.87h1.66Z"/><polygon class="cls-3" points="340.1 34.02 343 34.02 346.21 39.69 346.21 34.02 349.01 34.02 349.01 44.01 346.19 44.01 342.89 38.43 342.89 44.01 340.1 44.01 340.1 34.02"/><path class="cls-3" d="M355.53,33.83a5.45,5.45,0,0,1,3,.86l-.78,2.48a3.27,3.27,0,0,0-2.1-.74,2.59,2.59,0,0,0,0,5.17,3.27,3.27,0,0,0,2.1-.74l.78,2.48a5.45,5.45,0,0,1-3,.86,5.19,5.19,0,1,1,0-10.37"/><polygon class="cls-3" points="359.74 34.02 365.34 34.02 365.34 36.5 362.58 36.5 362.58 37.73 364.91 37.73 364.91 40.2 362.58 40.2 362.58 41.53 365.45 41.53 365.45 44.01 359.74 44.01 359.74 34.02"/><path class="cls-3" d="M366.85,34h3.53c2.49,0,3.67,1.2,3.67,3.15a3.07,3.07,0,0,1-1.31,2.64L375,44H371.9l-1.69-3.52h-.51V44h-2.85Zm3.32,4.15a.87.87,0,0,0,1-.9c0-.55-.34-.87-1-.87h-.47v1.77Z"/><path class="cls-3" d="M379.85,34h2.69c2.14,0,3.34,1.28,3.34,3a2.71,2.71,0,0,1-1.63,2.57L386.68,44h-1.76l-2.1-4.13h-1.38V44h-1.59Zm2.66,4.52A1.55,1.55,0,0,0,384.24,37c0-.93-.58-1.56-1.73-1.56h-1.07v3.13Z"/><path class="cls-3" d="M392.53,33.83A5.19,5.19,0,1,1,387.38,39a5,5,0,0,1,5.15-5.18m0,8.88A3.7,3.7,0,1,0,389,39a3.5,3.5,0,0,0,3.5,3.7"/><path class="cls-3" d="M399.92,41.31a2,2,0,0,0,1.95,1.42,1.33,1.33,0,0,0,1.5-1.34c0-2.12-4.49-1.65-4.49-4.86a2.71,2.71,0,0,1,3-2.7,3,3,0,0,1,3,2l-1.31.59a1.8,1.8,0,0,0-1.67-1.17,1.24,1.24,0,0,0-1.39,1.23c0,2,4.53,1.61,4.53,4.75a2.92,2.92,0,0,1-3.19,2.93,3.26,3.26,0,0,1-3.23-2.26Z"/><path class="cls-3" d="M408.3,41.1l-1,2.91h-1.6l3.64-10h1.64l3.65,10H413l-1-2.91Zm1.83-5.37-1.39,4h2.78Z"/><polygon class="cls-3" points="419.37 34.02 424.31 34.02 424.31 35.44 420.96 35.44 420.96 38.23 423.87 38.23 423.87 39.64 420.96 39.64 420.96 42.58 424.45 42.58 424.45 44.01 419.37 44.01 419.37 34.02"/><polygon class="cls-3" points="431.45 41.31 434.68 34.02 436.72 34.02 436.72 44.01 435.2 44.01 435.2 36.27 432.21 43.13 430.7 43.13 427.71 36.27 427.71 44.01 426.18 44.01 426.18 34.02 428.23 34.02 431.45 41.31"/><rect class="cls-3" x="438.8" y="34.01" width="1.59" height="10"/><polygon class="cls-3" points="442.48 34.02 444.06 34.02 444.06 42.58 447.56 42.58 447.56 44.01 442.48 44.01 442.48 34.02"/><rect class="cls-3" x="448.94" y="34.01" width="1.59" height="10"/><path class="cls-3" d="M454.36,41.1l-1,2.91h-1.6l3.64-10H457l3.64,10h-1.6l-1-2.91Zm1.83-5.37-1.39,4h2.78Z"/><path class="cls-3" d="M295.48,58.45a2,2,0,0,0,2,1.42,1.33,1.33,0,0,0,1.5-1.35c0-2.11-4.5-1.64-4.5-4.85a2.71,2.71,0,0,1,3-2.7,3,3,0,0,1,3,2l-1.32.59a1.79,1.79,0,0,0-1.67-1.17A1.24,1.24,0,0,0,296,53.65c0,2,4.52,1.62,4.52,4.76a2.91,2.91,0,0,1-3.18,2.93,3.25,3.25,0,0,1-3.23-2.26Z"/><path class="cls-3" d="M303.87,58.24l-1.05,2.91h-1.6l3.65-10h1.64l3.64,10h-1.6l-1-2.91Zm1.83-5.37-1.39,4h2.77Zm.21-4.34h1.66l-1.33,2h-1.32Z"/><polygon class="cls-3" points="311.34 51.16 312.94 51.16 317.84 58.67 317.84 51.16 319.39 51.16 319.39 61.15 317.82 61.15 312.91 53.68 312.91 61.15 311.34 61.15 311.34 51.16"/><path class="cls-3" d="M329.22,60.3a5.24,5.24,0,0,1-3.14,1,5.19,5.19,0,1,1,3-9.4l-.47,1.4a4.23,4.23,0,0,0-2.51-.89,3.7,3.7,0,0,0,0,7.4,4.38,4.38,0,0,0,2.63-.94Z"/><polygon class="cls-3" points="330.72 51.16 332.3 51.16 332.3 55.37 337.05 55.37 337.05 51.16 338.63 51.16 338.63 61.15 337.05 61.15 337.05 56.81 332.3 56.81 332.3 61.15 330.72 61.15 330.72 51.16"/><polygon class="cls-3" points="340.72 51.16 345.66 51.16 345.66 52.58 342.3 52.58 342.3 55.37 345.22 55.37 345.22 56.78 342.3 56.78 342.3 59.72 345.8 59.72 345.8 61.15 340.72 61.15 340.72 51.16"/><polygon class="cls-3" points="346.99 60.07 352.39 52.57 347.14 52.57 347.14 51.16 354.47 51.16 354.47 52.24 349.06 59.74 354.51 59.74 354.51 61.15 346.99 61.15 346.99 60.07"/><path class="cls-3" d="M359.68,51.16h2.9a3,3,0,0,1,3.2,3,3,3,0,0,1-3.18,3h-1.33v3.95h-1.59Zm2.72,4.65a1.62,1.62,0,0,0,1.76-1.65,1.6,1.6,0,0,0-1.75-1.62h-1.14v3.27Z"/><path class="cls-3" d="M367.18,51.15h4.94v1.43h-3.35v2.79h2.91v1.41h-2.91v2.94h3.5v1.43h-5.09Zm2.67-2.62h1.66l-1.33,2h-1.31Z"/><path class="cls-3" d="M374,51.15h2.68c2.15,0,3.35,1.28,3.35,3a2.71,2.71,0,0,1-1.63,2.57l2.43,4.48h-1.76L377,57H375.6v4.13H374Zm2.66,4.52a1.54,1.54,0,0,0,1.72-1.57,1.5,1.5,0,0,0-1.72-1.56H375.6v3.13Z"/><polygon class="cls-3" points="382.09 51.16 387.04 51.16 387.04 52.58 383.68 52.58 383.68 55.37 386.59 55.37 386.59 56.78 383.68 56.78 383.68 59.72 387.18 59.72 387.18 61.15 382.09 61.15 382.09 51.16"/><polygon class="cls-3" points="388.36 60.07 393.76 52.57 388.52 52.57 388.52 51.16 395.85 51.16 395.85 52.24 390.44 59.74 395.89 59.74 395.89 61.15 388.36 61.15 388.36 60.07"/><path class="cls-3" d="M401.06,51.16h2.36c3.34,0,5.33,1.87,5.33,5s-2,5-5.33,5h-2.36Zm2.51,8.61a3.26,3.26,0,0,0,3.53-3.62,3.28,3.28,0,0,0-3.53-3.59h-.92v7.21Z"/><polygon class="cls-3" points="410.29 51.16 415.23 51.16 415.23 52.58 411.87 52.58 411.87 55.37 414.79 55.37 414.79 56.78 411.87 56.78 411.87 59.72 415.37 59.72 415.37 61.15 410.29 61.15 410.29 51.16"/><polygon class="cls-3" points="422.46 52.58 419.94 52.58 419.94 51.16 426.56 51.16 426.56 52.58 424.04 52.58 424.04 61.15 422.46 61.15 422.46 52.58"/><path class="cls-3" d="M428.88,58.24l-1,2.91h-1.6l3.64-10h1.64l3.65,10h-1.6l-1-2.91Zm1.83-5.37-1.38,4h2.77Z"/><polygon class="cls-3" points="438.45 61.15 434.73 51.16 436.47 51.16 439.31 59.28 442.17 51.16 443.91 51.16 440.17 61.15 438.45 61.15"/><path class="cls-3" d="M446.09,58.24l-1,2.91h-1.6l3.64-10h1.65l3.64,10h-1.6l-1-2.91Zm1.83-5.37-1.38,4h2.77Z"/><path class="cls-3" d="M453.58,51.15h2.68c2.15,0,3.35,1.28,3.35,3A2.71,2.71,0,0,1,458,56.67l2.43,4.48h-1.76L456.55,57h-1.39v4.13h-1.58Zm2.66,4.52A1.54,1.54,0,0,0,458,54.1a1.5,1.5,0,0,0-1.72-1.56h-1.08v3.13Z"/><polygon class="cls-3" points="461.66 51.16 466.6 51.16 466.6 52.58 463.25 52.58 463.25 55.37 466.16 55.37 466.16 56.78 463.25 56.78 463.25 59.72 466.75 59.72 466.75 61.15 461.66 61.15 461.66 51.16"/><path class="cls-3" d="M469.19,58.45a2,2,0,0,0,2,1.42,1.33,1.33,0,0,0,1.5-1.35c0-2.11-4.5-1.64-4.5-4.85a2.71,2.71,0,0,1,3-2.7,3,3,0,0,1,3,2l-1.31.59a1.8,1.8,0,0,0-1.67-1.17,1.24,1.24,0,0,0-1.39,1.22c0,2,4.53,1.62,4.53,4.76a2.91,2.91,0,0,1-3.19,2.93,3.24,3.24,0,0,1-3.22-2.26Z"/></g></g></svg>